0
SECTION
2
HEADER
9
$INSUNITS
70
1
9
$ACADVER
1
AC1014
9
$HANDSEED
5
FFFF
0
ENDSEC
0
SECTION
2
TABLES
0
TABLE
2
VPORT
5
8
100
AcDbSymbolTable
0
ENDTAB
0
TABLE
2
LTYPE
5
5
100
AcDbSymbolTable
0
LTYPE
5
14
100
AcDbSymbolTableRecord
100
AcDbLinetypeTableRecord
2
BYBLOCK
70
0
0
LTYPE
5
15
100
AcDbSymbolTableRecord
100
AcDbLinetypeTableRecord
2
BYLAYER
70
0
0
ENDTAB
0
TABLE
2
LAYER
5
2
100
AcDbSymbolTable
70
2
0
LAYER
5
50
100
AcDbSymbolTableRecord
100
AcDbLayerTableRecord
2
0
70
0
6
CONTINUOUS
0
ENDTAB
0
TABLE
2
STYLE
5
3
100
AcDbSymbolTable
70
1
0
STYLE
5
11
100
AcDbSymbolTableRecord
100
AcDbTextStyleTableRecord
2
STANDARD
70
0
0
ENDTAB
0
TABLE
2
VIEW
5
6
100
AcDbSymbolTable
70
0
0
ENDTAB
0
TABLE
2
UCS
5
7
100
AcDbSymbolTable
70
0
0
ENDTAB
0
TABLE
2
APPID
5
9
100
AcDbSymbolTable
70
2
0
APPID
5
12
100
AcDbSymbolTableRecord
100
AcDbRegAppTableRecord
2
ACAD
70
0
0
ENDTAB
0
TABLE
2
DIMSTYLE
5
A
100
AcDbSymbolTable
70
1
0
ENDTAB
0
TABLE
2
BLOCK_RECORD
5
1
100
AcDbSymbolTable
70
1
0
BLOCK_RECORD
5
1F
100
AcDbSymbolTableRecord
100
AcDbBlockTableRecord
2
*MODEL_SPACE
0
BLOCK_RECORD
5
1B
100
AcDbSymbolTableRecord
100
AcDbBlockTableRecord
2
*PAPER_SPACE
0
ENDTAB
0
ENDSEC
0
SECTION
2
BLOCKS
0
BLOCK
5
20
100
AcDbEntity
100
AcDbBlockBegin
2
*MODEL_SPACE
0
ENDBLK
5
21
100
AcDbEntity
100
AcDbBlockEnd
0
BLOCK
5
1C
100
AcDbEntity
100
AcDbBlockBegin
2
*PAPER_SPACE
0
ENDBLK
5
1D
100
AcDbEntity
100
AcDbBlockEnd
0
ENDSEC
0
SECTION
2
ENTITIES
0
LWPOLYLINE
5
100
100
AcDbEntity
8
0
100
AcDbPolyline
90
44
70
1
43
0.0
10
1.4551181102362205
20
-1.7483827159451283e-16
42
-0.41421356237309609
10
1.5551181102362206
20
-0.10000000000000052
10
1.555118110236221
20
-5.4118110236220476
42
-0.41421356237309914
10
1.4551181102362212
20
-5.5118110236220472
10
1.2028386790719563
20
-5.5118110236220463
42
0.19891236737965737
10
1.1321280009533017
20
-5.5411003455033914
10
0.79700585731441675
20
-5.8762224891422763
42
0.19891236737965648
10
0.7677165354330715
20
-5.94693316726093
10
0.76771653543307161
20
-6.3730858460336828
42
0.21130873023365543
10
0.80044925603343997
20
-6.4470798533732765
10
1.1721808096483575
20
-6.7850176293868385
42
0.18657453376094255
10
1.2394480890479889
20
-6.8110236220472435
10
1.7631889763779542
20
-6.8110236220472453
42
-0.4142135623730932
10
1.9881889763779543
20
-7.0360236220472441
10
1.9881889763779543
20
-7.0584645669291328
42
-0.41421356237309503
10
1.7631889763779542
20
-7.2834645669291334
10
1.2394480890479902
20
-7.2834645669291334
42
0.18657453376094207
10
1.1721808096483588
20
-7.3094705595895393
10
0.80044925603344053
20
-7.6474083356031004
42
0.21130873023365754
10
0.76771653543307217
20
-7.721402342942695
10
0.7677165354330725
20
-8.5023622047244078
42
-0.41421356237308604
10
0.6677165354330723
20
-8.6023622047244075
10
-0.66771653543307119
20
-8.6023622047244093
42
-0.4142135623730917
10
-0.76771653543307117
20
-8.5023622047244096
10
-0.76771653543307117
20
-7.721402342942695
42
0.21130873023365859
10
-0.80044925603343975
20
-7.6474083356031004
10
-1.1721808096483568
20
-7.3094705595895393
42
0.18657453376094255
10
-1.2394480890479884
20
-7.2834645669291334
10
-1.7631889763779527
20
-7.2834645669291334
42
-0.41421356237309503
10
-1.9881889763779528
20
-7.0584645669291328
10
-1.9881889763779543
20
-7.0360236220472441
42
-0.4142135623730932
10
-1.7631889763779527
20
-6.8110236220472435
10
-1.2394480890479889
20
-6.8110236220472435
42
0.18657453376094207
10
-1.1721808096483575
20
-6.7850176293868385
10
-0.80044925603343908
20
-6.4470798533732765
42
0.21130873023365782
10
-0.76771653543307061
20
-6.3730858460336819
10
-0.76771653543307083
20
-5.9469331672609318
42
0.19891236737965831
10
-0.79700585731441609
20
-5.8762224891422763
10
-1.1321280009533006
20
-5.5411003455033914
42
0.19891236737965839
10
-1.2028386790719559
20
-5.5118110236220463
10
-1.4551181102362205
20
-5.5118110236220463
42
-0.41421356237309609
10
-1.5551181102362206
20
-5.4118110236220467
10
-1.5551181102362206
20
-0.099999999999999811
42
-0.41421356237309548
10
-1.4551181102362205
20
0
0
LWPOLYLINE
5
101
100
AcDbEntity
8
0
100
AcDbPolyline
90
12
70
1
43
0.0
10
-2.8749999999999996
20
-4.4746062992125974
42
-0.41421356237309503
10
-2.9499999999999997
20
-4.3996062992125973
10
-2.9499999999999997
20
-4.3564960629921252
10
-2.8318897637795271
20
-4.3564960629921252
10
-2.8318897637795271
20
-3.4025590551181102
42
-0.41421356237309503
10
-2.7818897637795268
20
-3.3525590551181099
10
-2.4881889763779523
20
-3.3525590551181099
42
-0.41421356237309093
10
-2.4381889763779525
20
-3.4025590551181102
10
-2.4381889763779525
20
-4.3564960629921252
10
-2.3200787401574798
20
-4.3564960629921252
10
-2.3200787401574798
20
-4.3996062992125982
42
-0.41421356237309503
10
-2.39507874015748
20
-4.4746062992125983
0
LWPOLYLINE
5
102
100
AcDbEntity
8
0
100
AcDbPolyline
90
12
70
1
43
0.0
10
-1.825
20
-3.3496062992125979
42
-0.41421356237309503
10
-1.75
20
-3.4246062992125976
10
-1.75
20
-3.4677165354330706
10
-1.8681102362204722
20
-3.4677165354330706
10
-1.8681102362204716
20
-4.4216535433070856
42
-0.41421356237308893
10
-1.9181102362204723
20
-4.4716535433070854
10
-2.2118110236220474
20
-4.4716535433070863
42
-0.41421356237309503
10
-2.2618110236220472
20
-4.4216535433070865
10
-2.2618110236220472
20
-3.4677165354330706
10
-2.3799212598425195
20
-3.4677165354330706
10
-2.3799212598425195
20
-3.4246062992125976
42
-0.41421356237309503
10
-2.3049212598425193
20
-3.3496062992125979
0
CIRCLE
5
103
100
AcDbEntity
8
0
100
AcDbCircle
10
-1.976839838558337
20
-5.7469761702125677
30
0
40
0.29527559055118108
210
0
220
-0
230
1
0
CIRCLE
5
104
100
AcDbEntity
8
0
100
AcDbCircle
10
-2.6768398385583372
20
-6.4469761702125679
30
0
40
0.29527559055118108
210
0
220
-0
230
1
0
LWPOLYLINE
5
105
100
AcDbEntity
8
0
100
AcDbPolyline
90
6
70
1
43
0.0
10
-2.1357553803892722
20
-7.8376063904482871
10
-2.4192199473184188
20
-7.8376063904482862
10
-2.5385541565013146
20
-8.0639843432041918
10
-2.4192199473184188
20
-8.2903622959600956
10
-2.1357553803892855
20
-8.2903622959601009
10
-2.0164211712063831
20
-8.0639843432041989
0
LWPOLYLINE
5
106
100
AcDbEntity
8
0
100
AcDbPolyline
90
6
70
1
43
0.0
10
-2.6357553803892722
20
-7.0376063904482873
10
-2.9192199473184188
20
-7.0376063904482855
10
-3.0385541565013146
20
-7.2639843432041911
10
-2.9192199473184188
20
-7.4903622959600966
10
-2.6357553803892855
20
-7.4903622959601002
10
-2.5164211712063835
20
-7.2639843432041991
0
LWPOLYLINE
5
107
100
AcDbEntity
8
0
100
AcDbPolyline
90
8
70
1
43
0.0
10
-5.352362204724388
20
-3.7913385826771702
42
-0.4142135623730876
10
-5.490157480314938
20
-3.9291338582677229
10
-5.5098425196850158
20
-3.929133858267722
42
-0.41421356237310253
10
-5.6476377952755685
20
-3.7913385826771728
10
-5.6476377952756103
20
-0.20866141732284346
42
-0.41421356237309875
10
-5.509842519685062
20
-0.070866141732290361
10
-5.4901574803149824
20
-0.070866141732289903
42
-0.41421356237308854
10
-5.3523622047244306
20
-0.20866141732283927
0
LWPOLYLINE
5
108
100
AcDbEntity
8
0
100
AcDbPolyline
90
16
70
1
43
0.0
10
-4.781496062992125
20
-2.5590551181102357
10
-4.8602362204724399
20
-2.5590551181102357
10
-4.8602362204724407
20
-3.0996062992125979
42
0.41421356237308893
10
-4.8102362204724409
20
-3.1496062992125977
10
-1.7999999999999998
20
-3.1496062992125977
42
0.4142135623731012
10
-1.75
20
-3.0996062992125979
10
-1.75
20
-2.5590551181102357
10
-1.828740157480315
20
-2.5590551181102357
10
-1.828740157480315
20
-2.1653543307086607
10
-1.75
20
-2.1653543307086607
10
-1.7499999999999996
20
-0.049999999999999906
42
0.41421356237309948
10
-1.7999999999999996
20
0
10
-4.8102362204724409
20
-1.0927391974657052e-17
42
0.41421356237308549
10
-4.8602362204724407
20
-0.049999999999999906
10
-4.8602362204724399
20
-2.1653543307086607
10
-4.781496062992125
20
-2.1653543307086607
0
LWPOLYLINE
5
109
100
AcDbEntity
8
0
100
AcDbPolyline
90
24
70
1
43
0.0
10
-2.8678503260709358
20
-4.7227008550314249
10
-3.2854330708661412
20
-4.3051181102362195
10
-3.2854330708661412
20
-3.4496062992125975
42
0.41421356237308682
10
-3.335433070866141
20
-3.3996062992125973
10
-4.8102362204724409
20
-3.3996062992125986
42
0.41421356237307866
10
-4.8602362204724407
20
-3.4496062992125989
10
-4.8602362204724407
20
-4.3051181102362204
10
-5.2778189652676462
20
-4.7227008550314258
10
-5.8402205400707956
20
-4.7227008550314258
42
0.41421356237309503
10
-6.0652205400707953
20
-4.9477008550314254
10
-6.0652205400707953
20
-4.9701417999133151
42
0.41421356237309503
10
-5.8402205400707956
20
-5.1951417999133147
10
-5.2778189652676462
20
-5.1951417999133147
10
-4.8602362204724399
20
-5.612724544708521
10
-4.860236220472439
20
-6.4682363557321434
42
0.41421356237308682
10
-4.8102362204724392
20
-6.5182363557321432
10
-3.335433070866141
20
-6.5182363557321432
42
0.41421356237310325
10
-3.2854330708661412
20
-6.4682363557321434
10
-3.2854330708661412
20
-5.612724544708521
10
-2.8678503260709358
20
-5.1951417999133138
10
-2.3054487512677864
20
-5.1951417999133138
42
0.41421356237309503
10
-2.0804487512677863
20
-4.9701417999133142
10
-2.0804487512677863
20
-4.9477008550314245
42
0.41421356237309548
10
-2.3054487512677868
20
-4.722700855031424
0
LWPOLYLINE
5
110
100
AcDbEntity
8
0
100
AcDbPolyline
90
4
70
1
43
0.0
10
2.2231654262942491
20
0.32472080977463347
10
2.2231654262942491
20
-9.1752791902253676
10
-6.2768345737057505
20
-9.1752791902253676
10
-6.2768345737057505
20
0.32472080977463347
0
LWPOLYLINE
5
111
100
AcDbEntity
8
0
100
AcDbPolyline
90
8
70
1
43
0.0
10
-3.2903513730376321
20
-8.4825160086317251
10
-3.2903513730376321
20
-6.9077128590254251
42
0.41421356237309193
10
-3.4872017667384188
20
-6.710862465324638
10
-4.6683041289431433
20
-6.710862465324638
42
0.41421356237308982
10
-4.8651545226439312
20
-6.9077128590254242
10
-4.8651545226439312
20
-8.4825160086317251
42
0.41421356237309193
10
-4.6683041289431433
20
-8.6793664023325121
10
-3.4872017667384192
20
-8.6793664023325121
42
0.41421356237309193
0
LWPOLYLINE
5
112
100
AcDbEntity
8
0
100
AcDbPolyline
90
6
70
1
43
0.0
10
-2.6357553803892722
20
-7.5376063904482873
10
-2.9192199473184188
20
-7.5376063904482855
10
-3.0385541565013146
20
-7.7639843432041911
10
-2.9192199473184188
20
-7.9903622959600957
10
-2.6357553803892855
20
-7.9903622959601002
10
-2.5164211712063835
20
-7.7639843432041991
0
LWPOLYLINE
5
113
100
AcDbEntity
8
0
100
AcDbPolyline
90
6
70
1
43
0.0
10
-2.1357553803892722
20
-7.3376063904482871
10
-2.4192199473184188
20
-7.3376063904482862
10
-2.5385541565013146
20
-7.5639843432041909
10
-2.4192199473184188
20
-7.7903622959600964
10
-2.1357553803892855
20
-7.7903622959601009
10
-2.0164211712063831
20
-7.5639843432041998
0
CIRCLE
5
114
100
AcDbEntity
8
0
100
AcDbCircle
10
-1.976839838558337
20
-6.4469761702125679
30
0
40
0.29527559055118108
210
0
220
-0
230
1
0
CIRCLE
5
115
100
AcDbEntity
8
0
100
AcDbCircle
10
-2.6768398385583372
20
-5.7469761702125677
30
0
40
0.29527559055118108
210
0
220
-0
230
1
0
LWPOLYLINE
5
116
100
AcDbEntity
8
0
100
AcDbPolyline
90
4
70
1
43
0.0
10
-4.5994064911478683
20
-6.9077128590254251
10
-4.5994064911478674
20
-8.4825160086317251
42
-0.99999999999999989
10
-4.7372017667384192
20
-8.4825160086317251
10
-4.7372017667384192
20
-6.9077128590254251
42
-0.99999999999999989
0
CIRCLE
5
117
100
AcDbEntity
8
0
100
AcDbCircle
10
-4.0777529478407812
20
-7.6951144338285751
30
0
40
0.11811023622047245
210
0
220
0
230
1
0
LWPOLYLINE
5
118
100
AcDbEntity
8
0
100
AcDbPolyline
90
4
70
1
43
0.0
10
-3.4183041289431433
20
-6.9077128590254251
10
-3.4183041289431442
20
-8.4825160086317251
42
-0.99999999999999989
10
-3.5560994045336947
20
-8.4825160086317251
10
-3.5560994045336938
20
-6.9077128590254251
42
-0.99999999999999989
0
CIRCLE
5
119
100
AcDbEntity
8
0
100
AcDbCircle
10
-2.777487663853849
20
-7.7639843432041884
30
0
40
0.088582677165354187
210
0
220
0
230
1
0
CIRCLE
5
120
100
AcDbEntity
8
0
100
AcDbCircle
10
-2.777487663853849
20
-7.2639843432041884
30
0
40
0.088582677165354187
210
0
220
0
230
1
0
CIRCLE
5
121
100
AcDbEntity
8
0
100
AcDbCircle
10
-2.277487663853849
20
-7.5639843432041882
30
0
40
0.088582677165354187
210
0
220
0
230
1
0
CIRCLE
5
122
100
AcDbEntity
8
0
100
AcDbCircle
10
-2.277487663853849
20
-8.0639843432041882
30
0
40
0.088582677165354187
210
0
220
0
230
1
0
CIRCLE
5
123
100
AcDbEntity
8
0
100
AcDbCircle
10
-1.7716535433070868
20
-7.047244094488188
30
0
40
0.098425196850393692
210
0
220
0
230
1
0
CIRCLE
5
124
100
AcDbEntity
8
0
100
AcDbCircle
10
-1.377952755905512
20
-7.047244094488188
30
0
40
0.059055118110236178
210
0
220
0
230
1
0
CIRCLE
5
125
100
AcDbEntity
8
0
100
AcDbCircle
10
-0.57086614173228356
20
-7.9527559055118102
30
0
40
0.059055118110235907
210
0
220
0
230
1
0
CIRCLE
5
126
100
AcDbEntity
8
0
100
AcDbCircle
10
-0.57086614173228378
20
-8.4055118110236222
30
0
40
0.059055118110235658
210
0
220
0
230
1
0
CIRCLE
5
127
100
AcDbEntity
8
0
100
AcDbCircle
10
0.57086614173228489
20
-8.4055118110236222
30
0
40
0.059055118110235658
210
0
220
0
230
1
0
CIRCLE
5
128
100
AcDbEntity
8
0
100
AcDbCircle
10
0.57086614173228467
20
-7.9527559055118102
30
0
40
0.059055118110235907
210
0
220
0
230
1
0
CIRCLE
5
129
100
AcDbEntity
8
0
100
AcDbCircle
10
3.1084659701705441e-17
20
-7.3966535433070861
30
0
40
0.034448818897637574
210
0
220
0
230
1
0
CIRCLE
5
130
100
AcDbEntity
8
0
100
AcDbCircle
10
1.3779527559055127
20
-7.047244094488188
30
0
40
0.059055118110236178
210
0
220
0
230
1
0
CIRCLE
5
131
100
AcDbEntity
8
0
100
AcDbCircle
10
1.7716535433070881
20
-7.047244094488188
30
0
40
0.098425196850393692
210
0
220
0
230
1
0
LWPOLYLINE
5
132
100
AcDbEntity
8
0
100
AcDbPolyline
90
4
70
1
43
0.0
10
0.23622047244094468
20
-6.3976377952755898
10
0.23622047244094491
20
-7.3031496062992121
10
-0.23622047244094393
20
-7.3031496062992121
10
-0.23622047244094371
20
-6.3976377952755898
0
CIRCLE
5
133
100
AcDbEntity
8
0
100
AcDbCircle
10
3.9820287738631638e-16
20
-6.3041338952755899
30
0
40
0.03444881889763779
210
0
220
0
230
1
0
CIRCLE
5
134
100
AcDbEntity
8
0
100
AcDbCircle
10
0.57086614173228467
20
-6.1811023622047232
30
0
40
0.059055118110236358
210
0
220
0
230
1
0
CIRCLE
5
135
100
AcDbEntity
8
0
100
AcDbCircle
10
-0.57086614173228378
20
-6.1811023622047232
30
0
40
0.059055118110236358
210
0
220
0
230
1
0
CIRCLE
5
136
100
AcDbEntity
8
0
100
AcDbCircle
10
0.57086614173228445
20
-5.7086614173228343
30
0
40
0.059055118110236442
210
0
220
0
230
1
0
CIRCLE
5
137
100
AcDbEntity
8
0
100
AcDbCircle
10
-0.57086614173228378
20
-5.7086614173228343
30
0
40
0.059055118110236442
210
0
220
0
230
1
0
CIRCLE
5
138
100
AcDbEntity
8
0
100
AcDbCircle
10
-0.86614173228346403
20
-5.3543307086614167
30
0
40
0.049212598425196846
210
0
220
0
230
1
0
CIRCLE
5
139
100
AcDbEntity
8
0
100
AcDbCircle
10
1.4173228346456699
20
-5.3543307086614167
30
0
40
0.049212598425196846
210
0
220
0
230
1
0
CIRCLE
5
140
100
AcDbEntity
8
0
100
AcDbCircle
10
5.0711100513969135e-17
20
-4.7834645669291342
30
0
40
0.059055118110236227
210
0
220
0
230
1
0
CIRCLE
5
141
100
AcDbEntity
8
0
100
AcDbCircle
10
0
20
-4.015748031496063
30
0
40
0.059055118110236213
210
0
220
0
230
1
0
CIRCLE
5
142
100
AcDbEntity
8
0
100
AcDbCircle
10
1.4173228346456699
20
-3.4251968503937
30
0
40
0.049212598425196673
210
0
220
0
230
1
0
CIRCLE
5
143
100
AcDbEntity
8
0
100
AcDbCircle
10
-0.86614173228346403
20
-3.4251968503937
30
0
40
0.049212598425196846
210
0
220
0
230
1
0
CIRCLE
5
144
100
AcDbEntity
8
0
100
AcDbCircle
10
0.77755905511811052
20
-2.9625984251968505
30
0
40
0.049212598425196846
210
0
220
0
230
1
0
CIRCLE
5
145
100
AcDbEntity
8
0
100
AcDbCircle
10
-1.4074803149606296
20
-2.9625984251968505
30
0
40
0.049212598425196846
210
0
220
0
230
1
0
CIRCLE
5
146
100
AcDbEntity
8
0
100
AcDbCircle
10
-0.80708661417322825
20
-2.6574803149606296
30
0
40
0.059055118110236358
210
0
220
0
230
1
0
CIRCLE
5
147
100
AcDbEntity
8
0
100
AcDbCircle
10
0.80708661417322858
20
-2.6574803149606296
30
0
40
0.059055118110236358
210
0
220
0
230
1
0
CIRCLE
5
148
100
AcDbEntity
8
0
100
AcDbCircle
10
0.77755905511811052
20
-2.204724409448819
30
0
40
0.049212598425196846
210
0
220
0
230
1
0
CIRCLE
5
149
100
AcDbEntity
8
0
100
AcDbCircle
10
-1.4074803149606296
20
-2.204724409448819
30
0
40
0.049212598425196846
210
0
220
0
230
1
0
CIRCLE
5
150
100
AcDbEntity
8
0
100
AcDbCircle
10
-0.53149606299212593
20
-1.6929133858267718
30
0
40
0.049212598425196846
210
0
220
0
230
1
0
CIRCLE
5
151
100
AcDbEntity
8
0
100
AcDbCircle
10
-1.3188976377952755
20
-1.6929133858267718
30
0
40
0.049212598425196846
210
0
220
0
230
1
0
CIRCLE
5
152
100
AcDbEntity
8
0
100
AcDbCircle
10
-0.14763779527559051
20
-1.6633858267716537
30
0
40
0.049212598425196846
210
0
220
0
230
1
0
CIRCLE
5
153
100
AcDbEntity
8
0
100
AcDbCircle
10
1.3090551181102361
20
-1.6633858267716537
30
0
40
0.049212598425196846
210
0
220
0
230
1
0
CIRCLE
5
154
100
AcDbEntity
8
0
100
AcDbCircle
10
-1.3188976377952755
20
-0.23622047244094491
30
0
40
0.049212598425196846
210
0
220
0
230
1
0
CIRCLE
5
155
100
AcDbEntity
8
0
100
AcDbCircle
10
-0.53149606299212593
20
-0.23622047244094491
30
0
40
0.049212598425196846
210
0
220
0
230
1
0
CIRCLE
5
156
100
AcDbEntity
8
0
100
AcDbCircle
10
-0.33464566929133843
20
-0.45275590551181105
30
0
40
0.059055118110236268
210
0
220
0
230
1
0
CIRCLE
5
157
100
AcDbEntity
8
0
100
AcDbCircle
10
-0.14763779527559051
20
-0.20669291338582677
30
0
40
0.049212598425196846
210
0
220
0
230
1
0
CIRCLE
5
158
100
AcDbEntity
8
0
100
AcDbCircle
10
0.33464566929133849
20
-0.45275590551181105
30
0
40
0.059055118110236227
210
0
220
0
230
1
0
CIRCLE
5
159
100
AcDbEntity
8
0
100
AcDbCircle
10
1.3090551181102361
20
-0.20669291338582677
30
0
40
0.049212598425196846
210
0
220
0
230
1
0
CIRCLE
5
160
100
AcDbEntity
8
0
100
AcDbCircle
10
-4.0925196850393695
20
-0.45275590551181111
30
0
40
0.059055118110236358
210
0
220
0
230
1
0
CIRCLE
5
161
100
AcDbEntity
8
0
100
AcDbCircle
10
-2.5177165354330708
20
-0.45275590551181105
30
0
40
0.059055118110236358
210
0
220
0
230
1
0
LWPOLYLINE
5
162
100
AcDbEntity
8
0
100
AcDbPolyline
90
4
70
1
43
0.0
10
-3.9940944881889759
20
-2.5590551181102357
10
-3.9940944881889759
20
-2.1653543307086607
10
-3.895669291338582
20
-2.1653543307086607
10
-3.895669291338582
20
-2.5590551181102357
0
LWPOLYLINE
5
163
100
AcDbEntity
8
0
100
AcDbPolyline
90
4
70
1
43
0.0
10
-2.7145669291338583
20
-2.5590551181102357
10
-2.7145669291338583
20
-2.1653543307086607
10
-2.6161417322834644
20
-2.1653543307086607
10
-2.6161417322834644
20
-2.5590551181102357
0
CIRCLE
5
164
100
AcDbEntity
8
0
100
AcDbCircle
10
-2.9901574803149602
20
-2.6574803149606301
30
0
40
0.059055118110236358
210
0
220
0
230
1
0
CIRCLE
5
165
100
AcDbEntity
8
0
100
AcDbCircle
10
-3.6200787401574801
20
-2.6574803149606301
30
0
40
0.059055118110236358
210
0
220
0
230
1
0
CIRCLE
5
166
100
AcDbEntity
8
0
100
AcDbCircle
10
-5.4999999999999956
20
-2.0000000000000067
30
0
40
0.066929133858267723
210
0
220
-0
230
1
0
CIRCLE
5
167
100
AcDbEntity
8
0
100
AcDbCircle
10
-5.4999999999999813
20
-3.791338582677203
30
0
40
0.098425196850393692
210
0
220
-0
230
1
0
CIRCLE
5
168
100
AcDbEntity
8
0
100
AcDbCircle
10
-5.5000000000000231
20
-0.20866141732280991
30
0
40
0.098425196850393692
210
0
220
-0
230
1
0
CIRCLE
5
169
100
AcDbEntity
8
0
100
AcDbCircle
10
-4.6633858267716528
20
-3.5570866141732269
30
0
40
0.059055118110236358
210
0
220
0
230
1
0
CIRCLE
5
170
100
AcDbEntity
8
0
100
AcDbCircle
10
-3.4822834645669296
20
-3.5570866141732269
30
0
40
0.059055118110236358
210
0
220
0
230
1
0
CIRCLE
5
171
100
AcDbEntity
8
0
100
AcDbCircle
10
-3.4822834645669296
20
-4.0492125984251972
30
0
40
0.059055118110236358
210
0
220
0
230
1
0
CIRCLE
5
172
100
AcDbEntity
8
0
100
AcDbCircle
10
-4.6633858267716528
20
-4.0492125984251972
30
0
40
0.059055118110236358
210
0
220
0
230
1
0
CIRCLE
5
173
100
AcDbEntity
8
0
100
AcDbCircle
10
-2.6350393700787396
20
-4.1399606299212586
30
0
40
0.059055118110236005
210
0
220
-0
230
1
0
CIRCLE
5
174
100
AcDbEntity
8
0
100
AcDbCircle
10
-2.6350393700787396
20
-3.4509842519685026
30
0
40
0.059055118110236005
210
0
220
-0
230
1
0
CIRCLE
5
175
100
AcDbEntity
8
0
100
AcDbCircle
10
-2.0649606299212597
20
-3.6842519685039368
30
0
40
0.059055118110236005
210
0
220
0
230
1
0
CIRCLE
5
176
100
AcDbEntity
8
0
100
AcDbCircle
10
-2.0649606299212597
20
-4.3732283464566928
30
0
40
0.059055118110236005
210
0
220
0
230
1
0
CIRCLE
5
177
100
AcDbEntity
8
0
100
AcDbCircle
10
-2.2969841843386529
20
-4.9589213274723694
30
0
40
0.098425196850394039
210
0
220
0
230
1
0
CIRCLE
5
178
100
AcDbEntity
8
0
100
AcDbCircle
10
-2.7103700111103057
20
-4.9589213274723694
30
0
40
0.059055118110236358
210
0
220
0
230
1
0
CIRCLE
5
179
100
AcDbEntity
8
0
100
AcDbCircle
10
-5.8486851069999286
20
-4.9589213274723702
30
0
40
0.098425196850393692
210
0
220
0
230
1
0
CIRCLE
5
180
100
AcDbEntity
8
0
100
AcDbCircle
10
-5.4352992802282758
20
-4.9589213274723702
30
0
40
0.059055118110236358
210
0
220
0
230
1
0
CIRCLE
5
181
100
AcDbEntity
8
0
100
AcDbCircle
10
-4.6633858267716528
20
-5.8686300565195451
30
0
40
0.059055118110236358
210
0
220
0
230
1
0
CIRCLE
5
182
100
AcDbEntity
8
0
100
AcDbCircle
10
-4.6633858267716528
20
-6.3607560407715136
30
0
40
0.059055118110236358
210
0
220
0
230
1
0
CIRCLE
5
183
100
AcDbEntity
8
0
100
AcDbCircle
10
-3.4822834645669283
20
-6.3607560407715136
30
0
40
0.059055118110236358
210
0
220
0
230
1
0
CIRCLE
5
184
100
AcDbEntity
8
0
100
AcDbCircle
10
-3.4822834645669283
20
-5.8686300565195451
30
0
40
0.059055118110236358
210
0
220
0
230
1
0
CIRCLE
5
185
100
AcDbEntity
8
0
100
AcDbCircle
10
-2.6768398385583372
20
-5.7469761702125677
30
0
40
0.088582677165354187
210
0
220
0
230
1
0
CIRCLE
5
186
100
AcDbEntity
8
0
100
AcDbCircle
10
-1.976839838558337
20
-5.7469761702125677
30
0
40
0.088582677165354187
210
0
220
0
230
1
0
CIRCLE
5
187
100
AcDbEntity
8
0
100
AcDbCircle
10
-2.6768398385583372
20
-6.4469761702125679
30
0
40
0.088582677165354187
210
0
220
0
230
1
0
CIRCLE
5
188
100
AcDbEntity
8
0
100
AcDbCircle
10
-1.976839838558337
20
-6.4469761702125679
30
0
40
0.088582677165354187
210
0
220
0
230
1
0
ENDSEC
0
SECTION
2
OBJECTS
0
DICTIONARY
5
C
100
AcDbDictionary
3
ACAD_GROUP
350
D
3
ACAD_MLINESTYLE
350
17
0
DICTIONARY
5
D
100
AcDbDictionary
0
DICTIONARY
5
1A
330
C
100
AcDbDictionary
0
DICTIONARY
5
17
100
AcDbDictionary
0
ENDSEC
0
EOF
